<svg xmlns="http://www.w3.org/2000/svg" width="1200" height="700" viewBox="0 0 1200 700">
<style>
  text { font-family: sans-serif; font-size: 12px; fill: #333; }
  .title { font-size: 18px; font-weight: bold; }
  .axis { font-size: 12px; }
  .label { font-size: 11px; }
  .grid { stroke: #e0e0e0; stroke-width: 1; }
</style>
<rect width="1200" height="700" fill="#ffffff"/>
<text x="600" y="35" text-anchor="middle" class="title">Period Benchmark Results (log scale)</text>
<line x1="90" y1="560.0" x2="980" y2="560.0" class="grid"/>
<text x="82" y="564.0" text-anchor="end" class="axis">10 ms</text>
<line x1="90" y1="299.42772483820744" x2="980" y2="299.42772483820744" class="grid"/>
<text x="82" y="303.42772483820744" text-anchor="end" class="axis">100 ms</text>
<line x1="90" y1="60" x2="90" y2="560" stroke="#333" stroke-width="2"/>
<line x1="90" y1="560" x2="980" y2="560" stroke="#333" stroke-width="2"/>
<rect x="97.06349206349206" y="533.9312824143702" width="12.007936507936508" height="26.06871758562977" fill="#4caf50" rx="2"/>
<text x="103.06746031746032" y="528.9312824143702" text-anchor="middle" class="label">13.4</text>
<rect x="111.19047619047619" y="513.3289210187992" width="12.007936507936508" height="46.67107898120082" fill="#ff9800" rx="2"/>
<text x="117.19444444444444" y="508.3289210187992" text-anchor="middle" class="label">16.0</text>
<rect x="125.31746031746032" y="458.3763377879844" width="12.007936507936508" height="101.62366221201557" fill="#2196f3" rx="2"/>
<text x="131.32142857142858" y="453.3763377879844" text-anchor="middle" class="label">25.7</text>
<rect x="139.44444444444446" y="433.67921467839795" width="12.007936507936508" height="126.32078532160205" fill="#00bcd4" rx="2"/>
<text x="145.4484126984127" y="428.67921467839795" text-anchor="middle" class="label">31.7</text>
<rect x="153.57142857142856" y="317.76396241488436" width="12.007936507936508" height="242.23603758511564" fill="#f44336" rx="2"/>
<text x="159.5753968253968" y="312.76396241488436" text-anchor="middle" class="label">85.5</text>
<rect x="167.6984126984127" y="365.0503539008922" width="12.007936507936508" height="194.94964609910778" fill="#9c27b0" rx="2"/>
<text x="173.70238095238096" y="360.0503539008922" text-anchor="middle" class="label">57.0</text>
<rect x="195.95238095238096" y="476.84358048994477" width="12.007936507936508" height="83.15641951005523" fill="#4caf50" rx="2"/>
<text x="201.95634920634922" y="471.84358048994477" text-anchor="middle" class="label">21.9</text>
<rect x="210.07936507936506" y="505.43684956223694" width="12.007936507936508" height="54.563150437763056" fill="#ff9800" rx="2"/>
<text x="216.08333333333331" y="500.43684956223694" text-anchor="middle" class="label">17.1</text>
<rect x="224.20634920634922" y="403.8941612741353" width="12.007936507936508" height="156.10583872586471" fill="#2196f3" rx="2"/>
<text x="230.21031746031747" y="398.8941612741353" text-anchor="middle" class="label">40.9</text>
<rect x="238.33333333333331" y="394.71559255334523" width="12.007936507936508" height="165.28440744665477" fill="#00bcd4" rx="2"/>
<text x="244.33730158730157" y="389.71559255334523" text-anchor="middle" class="label">44.2</text>
<rect x="252.46031746031747" y="306.0807283855306" width="12.007936507936508" height="253.91927161446938" fill="#f44336" rx="2"/>
<text x="258.4642857142857" y="301.0807283855306" text-anchor="middle" class="label">94.5</text>
<rect x="266.58730158730157" y="338.21729967228816" width="12.007936507936508" height="221.78270032771184" fill="#9c27b0" rx="2"/>
<text x="272.5912698412698" y="333.21729967228816" text-anchor="middle" class="label">71.7</text>
<rect x="294.8412698412698" y="449.2570914953826" width="12.007936507936508" height="110.74290850461739" fill="#4caf50" rx="2"/>
<text x="300.8452380952381" y="444.2570914953826" text-anchor="middle" class="label">27.7</text>
<rect x="308.968253968254" y="500.27302339719074" width="12.007936507936508" height="59.72697660280926" fill="#ff9800" rx="2"/>
<text x="314.97222222222223" y="495.27302339719074" text-anchor="middle" class="label">17.9</text>
<rect x="323.0952380952381" y="372.0867315646688" width="12.007936507936508" height="187.9132684353312" fill="#2196f3" rx="2"/>
<text x="329.0992063492063" y="367.0867315646688" text-anchor="middle" class="label">53.7</text>
<rect x="337.22222222222223" y="417.1229849935843" width="12.007936507936508" height="142.87701500641572" fill="#00bcd4" rx="2"/>
<text x="343.2261904761905" y="412.1229849935843" text-anchor="middle" class="label">36.5</text>
<rect x="351.3492063492063" y="307.98159700818013" width="12.007936507936508" height="252.01840299181987" fill="#f44336" rx="2"/>
<text x="357.3531746031746" y="302.98159700818013" text-anchor="middle" class="label">92.9</text>
<rect x="365.4761904761905" y="346.24628686470464" width="12.007936507936508" height="213.75371313529536" fill="#9c27b0" rx="2"/>
<text x="371.48015873015873" y="341.24628686470464" text-anchor="middle" class="label">67.0</text>
<rect x="393.7301587301587" y="482.793364635074" width="12.007936507936508" height="77.206635364926" fill="#4caf50" rx="2"/>
<text x="399.73412698412693" y="477.793364635074" text-anchor="middle" class="label">20.8</text>
<rect x="407.85714285714283" y="517.3900991666118" width="12.007936507936508" height="42.609900833388224" fill="#ff9800" rx="2"/>
<text x="413.8611111111111" y="512.3900991666118" text-anchor="middle" class="label">15.5</text>
<rect x="421.98412698412693" y="418.12725453529424" width="12.007936507936508" height="141.87274546470576" fill="#2196f3" rx="2"/>
<text x="427.9880952380952" y="413.12725453529424" text-anchor="middle" class="label">36.2</text>
<rect x="436.1111111111111" y="398.0419210440572" width="12.007936507936508" height="161.95807895594282" fill="#00bcd4" rx="2"/>
<text x="442.11507936507934" y="393.0419210440572" text-anchor="middle" class="label">43.0</text>
<rect x="450.2380952380952" y="309.48591068685556" width="12.007936507936508" height="250.51408931314444" fill="#f44336" rx="2"/>
<text x="456.24206349206344" y="304.48591068685556" text-anchor="middle" class="label">91.8</text>
<rect x="464.36507936507934" y="350.0598095631047" width="12.007936507936508" height="209.9401904368953" fill="#9c27b0" rx="2"/>
<text x="470.3690476190476" y="345.0598095631047" text-anchor="middle" class="label">64.8</text>
<rect x="492.6190476190476" y="502.96834810849623" width="12.007936507936508" height="57.03165189150377" fill="#4caf50" rx="2"/>
<text x="498.62301587301585" y="497.96834810849623" text-anchor="middle" class="label">17.5</text>
<rect x="506.74603174603175" y="402.2018523615409" width="12.007936507936508" height="157.7981476384591" fill="#ff9800" rx="2"/>
<text x="512.75" y="397.2018523615409" text-anchor="middle" class="label">41.5</text>
<rect x="520.8730158730159" y="520.4631532243445" width="12.007936507936508" height="39.53684677565548" fill="#2196f3" rx="2"/>
<text x="526.8769841269842" y="515.4631532243445" text-anchor="middle" class="label">15.1</text>
<rect x="535.0" y="81.29969316093474" width="12.007936507936508" height="478.70030683906526" fill="#00bcd4" rx="2"/>
<text x="541.0039682539683" y="76.29969316093474" text-anchor="middle" class="label">647.0</text>
<rect x="549.1269841269841" y="334.4099538906473" width="12.007936507936508" height="225.59004610935273" fill="#f44336" rx="2"/>
<text x="555.1309523809524" y="329.4099538906473" text-anchor="middle" class="label">74.1</text>
<rect x="563.2539682539682" y="388.62155082283664" width="12.007936507936508" height="171.37844917716336" fill="#9c27b0" rx="2"/>
<text x="569.2579365079365" y="383.62155082283664" text-anchor="middle" class="label">46.6</text>
<rect x="591.5079365079365" y="515.547627036341" width="12.007936507936508" height="44.452372963658945" fill="#4caf50" rx="2"/>
<text x="597.5119047619048" y="510.54762703634105" text-anchor="middle" class="label">15.7</text>
<rect x="605.6349206349206" y="494.5490786923079" width="12.007936507936508" height="65.45092130769211" fill="#ff9800" rx="2"/>
<text x="611.6388888888889" y="489.5490786923079" text-anchor="middle" class="label">18.8</text>
<rect x="619.7619047619048" y="511.68986723959466" width="12.007936507936508" height="48.31013276040534" fill="#2196f3" rx="2"/>
<text x="625.7658730158731" y="506.68986723959466" text-anchor="middle" class="label">16.3</text>
<rect x="633.8888888888889" y="458.1823025763497" width="12.007936507936508" height="101.81769742365032" fill="#00bcd4" rx="2"/>
<text x="639.8928571428572" y="453.1823025763497" text-anchor="middle" class="label">25.7</text>
<rect x="648.015873015873" y="323.82764436136756" width="12.007936507936508" height="236.17235563863244" fill="#f44336" rx="2"/>
<text x="654.0198412698413" y="318.82764436136756" text-anchor="middle" class="label">81.2</text>
<rect x="662.1428571428571" y="386.5485169643099" width="12.007936507936508" height="173.4514830356901" fill="#9c27b0" rx="2"/>
<text x="668.1468253968254" y="381.5485169643099" text-anchor="middle" class="label">47.4</text>
<rect x="690.3968253968253" y="508.8335717197436" width="12.007936507936508" height="51.16642828025641" fill="#4caf50" rx="2"/>
<text x="696.4007936507936" y="503.8335717197436" text-anchor="middle" class="label">16.7</text>
<rect x="704.5238095238094" y="488.69299581181804" width="12.007936507936508" height="71.30700418818196" fill="#ff9800" rx="2"/>
<text x="710.5277777777777" y="483.69299581181804" text-anchor="middle" class="label">19.8</text>
<rect x="718.6507936507936" y="505.10346383691973" width="12.007936507936508" height="54.89653616308027" fill="#2196f3" rx="2"/>
<text x="724.6547619047619" y="500.10346383691973" text-anchor="middle" class="label">17.2</text>
<rect x="732.7777777777777" y="458.0343989484103" width="12.007936507936508" height="101.96560105158972" fill="#00bcd4" rx="2"/>
<text x="738.781746031746" y="453.0343989484103" text-anchor="middle" class="label">25.7</text>
<rect x="746.9047619047618" y="346.11309271865" width="12.007936507936508" height="213.88690728134998" fill="#f44336" rx="2"/>
<text x="752.9087301587301" y="341.11309271865" text-anchor="middle" class="label">67.1</text>
<rect x="761.0317460317459" y="384.44076497248045" width="12.007936507936508" height="175.55923502751955" fill="#9c27b0" rx="2"/>
<text x="767.0357142857142" y="379.44076497248045" text-anchor="middle" class="label">48.3</text>
<rect x="789.2857142857142" y="514.183842458733" width="12.007936507936508" height="45.81615754126699" fill="#4caf50" rx="2"/>
<text x="795.2896825396825" y="509.183842458733" text-anchor="middle" class="label">15.9</text>
<rect x="803.4126984126983" y="357.8219158946031" width="12.007936507936508" height="202.17808410539692" fill="#ff9800" rx="2"/>
<text x="809.4166666666666" y="352.8219158946031" text-anchor="middle" class="label">60.7</text>
<rect x="817.5396825396825" y="527.217488435639" width="12.007936507936508" height="32.782511564361016" fill="#2196f3" rx="2"/>
<text x="823.5436507936508" y="522.217488435639" text-anchor="middle" class="label">14.2</text>
<rect x="831.6666666666666" y="460.94849327741355" width="12.007936507936508" height="99.05150672258645" fill="#00bcd4" rx="2"/>
<text x="837.6706349206349" y="455.94849327741355" text-anchor="middle" class="label">25.1</text>
<rect x="845.7936507936507" y="338.87095039937617" width="12.007936507936508" height="221.12904960062383" fill="#f44336" rx="2"/>
<text x="851.797619047619" y="333.87095039937617" text-anchor="middle" class="label">71.3</text>
<rect x="859.9206349206348" y="378.3009960045024" width="12.007936507936508" height="181.6990039954976" fill="#9c27b0" rx="2"/>
<text x="865.9246031746031" y="373.3009960045024" text-anchor="middle" class="label">50.9</text>
<rect x="888.1746031746031" y="256.12716119670563" width="12.007936507936508" height="303.87283880329437" fill="#ff9800" rx="2"/>
<text x="894.1785714285714" y="251.12716119670563" text-anchor="middle" class="label">144.9</text>
<rect x="902.3015873015872" y="299.70448341936117" width="12.007936507936508" height="260.29551658063883" fill="#f44336" rx="2"/>
<text x="908.3055555555555" y="294.70448341936117" text-anchor="middle" class="label">99.8</text>
<rect x="916.4285714285714" y="268.9817019592258" width="12.007936507936508" height="291.0182980407742" fill="#9c27b0" rx="2"/>
<text x="922.4325396825398" y="263.9817019592258" text-anchor="middle" class="label">129.8</text>
<text x="139.44444444444446" y="580" text-anchor="middle" transform="rotate(-30 139.44444444444446 580)" class="axis">sum</text>
<text x="238.33333333333331" y="580" text-anchor="middle" transform="rotate(-30 238.33333333333331 580)" class="axis">div3or5</text>
<text x="337.22222222222223" y="580" text-anchor="middle" transform="rotate(-30 337.22222222222223 580)" class="axis">count_div3and5</text>
<text x="436.1111111111111" y="580" text-anchor="middle" transform="rotate(-30 436.1111111111111 580)" class="axis">sum_multiples_3or5</text>
<text x="535.0" y="580" text-anchor="middle" transform="rotate(-30 535.0 580)" class="axis">string_concat</text>
<text x="633.8888888888889" y="580" text-anchor="middle" transform="rotate(-30 633.8888888888889 580)" class="axis">list_grow</text>
<text x="732.7777777777777" y="580" text-anchor="middle" transform="rotate(-30 732.7777777777777 580)" class="axis">count_calls</text>
<text x="831.6666666666666" y="580" text-anchor="middle" transform="rotate(-30 831.6666666666666 580)" class="axis">class_new</text>
<text x="930.5555555555555" y="580" text-anchor="middle" transform="rotate(-30 930.5555555555555 580)" class="axis">try_catch</text>
<text x="1010" y="70" class="axis" font-weight="bold">Language</text>
<rect x="1010" y="70" width="14" height="14" fill="#4caf50" rx="2"/>
<text x="1032" y="82" class="axis">C (Release)</text>
<rect x="1010" y="92" width="14" height="14" fill="#ff9800" rx="2"/>
<text x="1032" y="104" class="axis">Period</text>
<rect x="1010" y="114" width="14" height="14" fill="#2196f3" rx="2"/>
<text x="1032" y="126" class="axis">Rust</text>
<rect x="1010" y="136" width="14" height="14" fill="#00bcd4" rx="2"/>
<text x="1032" y="148" class="axis">Go</text>
<rect x="1010" y="158" width="14" height="14" fill="#f44336" rx="2"/>
<text x="1032" y="170" class="axis">Java</text>
<rect x="1010" y="180" width="14" height="14" fill="#9c27b0" rx="2"/>
<text x="1032" y="192" class="axis">C#</text>
</svg>