<svg xmlns="http://www.w3.org/2000/svg" width="980" height="500" viewBox="0 0 980 500">
<style>
  text { font-family: sans-serif; font-size: 12px; fill: #333; }
  .title { font-size: 18px; font-weight: bold; }
  .axis { font-size: 12px; }
  .label { font-size: 11px; }
  .grid { stroke: #e0e0e0; stroke-width: 1; }
</style>
<rect width="980" height="500" fill="#ffffff"/>
<text x="490" y="27" text-anchor="middle" class="title">Period Benchmark Results (log scale)</text>
<line x1="75" y1="440.0" x2="870" y2="440.0" class="grid"/>
<text x="67" y="444.0" text-anchor="end" class="axis">1 ms</text>
<line x1="75" y1="416.9516373442066" x2="870" y2="416.9516373442066" class="grid"/>
<text x="67" y="420.9516373442066" text-anchor="end" class="axis">10 ms</text>
<line x1="75" y1="283.88059485177064" x2="870" y2="283.88059485177064" class="grid"/>
<text x="67" y="287.88059485177064" text-anchor="end" class="axis">100 ms</text>
<line x1="75" y1="150.80955235933476" x2="870" y2="150.80955235933476" class="grid"/>
<text x="67" y="154.80955235933476" text-anchor="end" class="axis">1000 ms</text>
<line x1="75" y1="45" x2="75" y2="440" stroke="#333" stroke-width="2"/>
<line x1="75" y1="440" x2="870" y2="440" stroke="#333" stroke-width="2"/>
<rect x="82.36111111111111" y="137.59406940572876" width="12.513888888888888" height="302.40593059427124" fill="#ff9800" rx="2"/>
<text x="88.61805555555556" y="132.59406940572876" text-anchor="middle" class="label">1256.9</text>
<rect x="97.08333333333333" y="378.43490182873836" width="12.513888888888888" height="61.56509817126164" fill="#2196f3" rx="2"/>
<text x="103.34027777777777" y="373.43490182873836" text-anchor="middle" class="label">19.5</text>
<rect x="111.80555555555556" y="361.6075134297964" width="12.513888888888888" height="78.39248657020357" fill="#00bcd4" rx="2"/>
<text x="118.0625" y="356.6075134297964" text-anchor="middle" class="label">26.1</text>
<rect x="126.52777777777777" y="326.06147700157095" width="12.513888888888888" height="113.93852299842905" fill="#9c27b0" rx="2"/>
<text x="132.78472222222223" y="321.06147700157095" text-anchor="middle" class="label">48.2</text>
<rect x="141.25" y="304.0531336938635" width="12.513888888888888" height="135.94686630613649" fill="#f44336" rx="2"/>
<text x="147.50694444444446" y="299.0531336938635" text-anchor="middle" class="label">70.5</text>
<rect x="170.69444444444443" y="55.536730957407485" width="12.513888888888888" height="384.4632690425925" fill="#ff9800" rx="2"/>
<text x="176.95138888888889" y="70.53673095740749" text-anchor="middle" class="label">5199.4</text>
<rect x="185.41666666666666" y="342.86352249885573" width="12.513888888888888" height="97.13647750114427" fill="#2196f3" rx="2"/>
<text x="191.67361111111111" y="337.86352249885573" text-anchor="middle" class="label">36.0</text>
<rect x="200.13888888888886" y="339.04933704760225" width="12.513888888888888" height="100.95066295239775" fill="#00bcd4" rx="2"/>
<text x="206.39583333333331" y="334.04933704760225" text-anchor="middle" class="label">38.5</text>
<rect x="214.8611111111111" y="315.1964390409419" width="12.513888888888888" height="124.80356095905807" fill="#9c27b0" rx="2"/>
<text x="221.11805555555554" y="310.1964390409419" text-anchor="middle" class="label">58.2</text>
<rect x="229.58333333333331" y="294.4269616979222" width="12.513888888888888" height="145.5730383020778" fill="#f44336" rx="2"/>
<text x="235.84027777777777" y="289.4269616979222" text-anchor="middle" class="label">83.3</text>
<rect x="259.02777777777777" y="58.79182347752294" width="12.513888888888888" height="381.20817652247706" fill="#ff9800" rx="2"/>
<text x="265.28472222222223" y="73.79182347752294" text-anchor="middle" class="label">4914.7</text>
<rect x="273.75" y="339.57964233197487" width="12.513888888888888" height="100.42035766802513" fill="#2196f3" rx="2"/>
<text x="280.00694444444446" y="334.57964233197487" text-anchor="middle" class="label">38.1</text>
<rect x="288.47222222222223" y="355.8258605381754" width="12.513888888888888" height="84.17413946182461" fill="#00bcd4" rx="2"/>
<text x="294.7291666666667" y="350.8258605381754" text-anchor="middle" class="label">28.8</text>
<rect x="303.19444444444446" y="318.60652588527364" width="12.513888888888888" height="121.39347411472636" fill="#9c27b0" rx="2"/>
<text x="309.4513888888889" y="313.60652588527364" text-anchor="middle" class="label">54.8</text>
<rect x="317.91666666666663" y="300.14394179320664" width="12.513888888888888" height="139.85605820679336" fill="#f44336" rx="2"/>
<text x="324.1736111111111" y="295.14394179320664" text-anchor="middle" class="label">75.5</text>
<rect x="347.3611111111111" y="56.64988242128311" width="12.513888888888888" height="383.3501175787169" fill="#ff9800" rx="2"/>
<text x="353.61805555555554" y="71.64988242128311" text-anchor="middle" class="label">5100.2</text>
<rect x="362.0833333333333" y="356.8421977407375" width="12.513888888888888" height="83.1578022592625" fill="#2196f3" rx="2"/>
<text x="368.34027777777777" y="351.8421977407375" text-anchor="middle" class="label">28.3</text>
<rect x="376.80555555555554" y="344.22043535334416" width="12.513888888888888" height="95.77956464665584" fill="#00bcd4" rx="2"/>
<text x="383.0625" y="339.22043535334416" text-anchor="middle" class="label">35.2</text>
<rect x="391.52777777777777" y="316.71237966379545" width="12.513888888888888" height="123.28762033620455" fill="#9c27b0" rx="2"/>
<text x="397.78472222222223" y="311.71237966379545" text-anchor="middle" class="label">56.7</text>
<rect x="406.25" y="299.19808264359733" width="12.513888888888888" height="140.80191735640267" fill="#f44336" rx="2"/>
<text x="412.50694444444446" y="294.19808264359733" text-anchor="middle" class="label">76.7</text>
<rect x="435.6944444444444" y="343.40978426082916" width="12.513888888888888" height="96.59021573917084" fill="#ff9800" rx="2"/>
<text x="441.95138888888886" y="338.40978426082916" text-anchor="middle" class="label">35.7</text>
<rect x="450.41666666666663" y="418.7152134156533" width="12.513888888888888" height="21.284786584346705" fill="#2196f3" rx="2"/>
<text x="456.6736111111111" y="413.7152134156533" text-anchor="middle" class="label">9.7</text>
<rect x="465.13888888888886" y="179.8043128093346" width="12.513888888888888" height="260.1956871906654" fill="#00bcd4" rx="2"/>
<text x="471.3958333333333" y="174.8043128093346" text-anchor="middle" class="label">605.5</text>
<rect x="479.8611111111111" y="337.22204343879076" width="12.513888888888888" height="102.77795656120924" fill="#9c27b0" rx="2"/>
<text x="486.11805555555554" y="332.22204343879076" text-anchor="middle" class="label">39.7</text>
<rect x="494.5833333333333" y="314.250873918017" width="12.513888888888888" height="125.74912608198298" fill="#f44336" rx="2"/>
<text x="500.84027777777777" y="309.250873918017" text-anchor="middle" class="label">59.1</text>
<rect x="524.0277777777777" y="348.73532596603735" width="12.513888888888888" height="91.26467403396265" fill="#ff9800" rx="2"/>
<text x="530.2847222222222" y="343.73532596603735" text-anchor="middle" class="label">32.6</text>
<rect x="538.75" y="418.1131188587124" width="12.513888888888888" height="21.886881141287574" fill="#2196f3" rx="2"/>
<text x="545.0069444444445" y="413.1131188587124" text-anchor="middle" class="label">9.8</text>
<rect x="553.4722222222222" y="376.86674154878915" width="12.513888888888888" height="63.13325845121085" fill="#00bcd4" rx="2"/>
<text x="559.7291666666666" y="371.86674154878915" text-anchor="middle" class="label">20.0</text>
<rect x="568.1944444444443" y="341.22795040739027" width="12.513888888888888" height="98.77204959260973" fill="#9c27b0" rx="2"/>
<text x="574.4513888888888" y="336.22795040739027" text-anchor="middle" class="label">37.1</text>
<rect x="582.9166666666666" y="298.98168480872664" width="12.513888888888888" height="141.01831519127336" fill="#f44336" rx="2"/>
<text x="589.1736111111111" y="293.98168480872664" text-anchor="middle" class="label">77.0</text>
<rect x="612.3611111111111" y="325.50392913991675" width="12.513888888888888" height="114.49607086008325" fill="#ff9800" rx="2"/>
<text x="618.6180555555555" y="320.50392913991675" text-anchor="middle" class="label">48.7</text>
<rect x="627.0833333333334" y="423.12475078294216" width="12.513888888888888" height="16.875249217057842" fill="#2196f3" rx="2"/>
<text x="633.3402777777778" y="418.12475078294216" text-anchor="middle" class="label">9.0</text>
<rect x="641.8055555555555" y="377.12373317988624" width="12.513888888888888" height="62.876266820113756" fill="#00bcd4" rx="2"/>
<text x="648.0625" y="372.12373317988624" text-anchor="middle" class="label">19.9</text>
<rect x="656.5277777777778" y="342.8672431050393" width="12.513888888888888" height="97.13275689496072" fill="#9c27b0" rx="2"/>
<text x="662.7847222222223" y="337.8672431050393" text-anchor="middle" class="label">36.0</text>
<rect x="671.25" y="314.35402810389803" width="12.513888888888888" height="125.64597189610197" fill="#f44336" rx="2"/>
<text x="677.5069444444445" y="309.35402810389803" text-anchor="middle" class="label">59.0</text>
<rect x="700.6944444444443" y="269.63552072940934" width="12.513888888888888" height="170.36447927059066" fill="#ff9800" rx="2"/>
<text x="706.9513888888888" y="264.63552072940934" text-anchor="middle" class="label">128.0</text>
<rect x="715.4166666666666" y="427.1040835410624" width="12.513888888888888" height="12.89591645893762" fill="#2196f3" rx="2"/>
<text x="721.6736111111111" y="422.1040835410624" text-anchor="middle" class="label">8.4</text>
<rect x="730.1388888888888" y="378.1805943592313" width="12.513888888888888" height="61.81940564076871" fill="#00bcd4" rx="2"/>
<text x="736.3958333333333" y="373.1805943592313" text-anchor="middle" class="label">19.6</text>
<rect x="744.8611111111111" y="340.62989345969254" width="12.513888888888888" height="99.37010654030746" fill="#9c27b0" rx="2"/>
<text x="751.1180555555555" y="335.62989345969254" text-anchor="middle" class="label">37.5</text>
<rect x="759.5833333333333" y="314.1842893940119" width="12.513888888888888" height="125.8157106059881" fill="#f44336" rx="2"/>
<text x="765.8402777777777" y="309.1842893940119" text-anchor="middle" class="label">59.2</text>
<rect x="789.0277777777777" y="307.0910435534537" width="12.513888888888888" height="132.9089564465463" fill="#ff9800" rx="2"/>
<text x="795.2847222222222" y="302.0910435534537" text-anchor="middle" class="label">66.9</text>
<rect x="803.75" y="256.32144716756073" width="12.513888888888888" height="183.67855283243927" fill="#2196f3" rx="2"/>
<text x="810.0069444444445" y="251.32144716756073" text-anchor="middle" class="label">161.1</text>
<rect x="818.4722222222222" y="360.11126641671876" width="12.513888888888888" height="79.88873358328124" fill="#00bcd4" rx="2"/>
<text x="824.7291666666666" y="355.11126641671876" text-anchor="middle" class="label">26.7</text>
<rect x="833.1944444444443" y="277.8055759933151" width="12.513888888888888" height="162.19442400668493" fill="#9c27b0" rx="2"/>
<text x="839.4513888888888" y="272.8055759933151" text-anchor="middle" class="label">111.1</text>
<rect x="847.9166666666666" y="293.5690073263967" width="12.513888888888888" height="146.43099267360333" fill="#f44336" rx="2"/>
<text x="854.1736111111111" y="288.5690073263967" text-anchor="middle" class="label">84.6</text>
<text x="119.16666666666666" y="460" text-anchor="middle" transform="rotate(-30 119.16666666666666 460)" class="axis">sum</text>
<text x="207.49999999999997" y="460" text-anchor="middle" transform="rotate(-30 207.49999999999997 460)" class="axis">div3or5</text>
<text x="295.8333333333333" y="460" text-anchor="middle" transform="rotate(-30 295.8333333333333 460)" class="axis">count_div3and5</text>
<text x="384.1666666666667" y="460" text-anchor="middle" transform="rotate(-30 384.1666666666667 460)" class="axis">sum_multiples_3or5</text>
<text x="472.5" y="460" text-anchor="middle" transform="rotate(-30 472.5 460)" class="axis">string_concat</text>
<text x="560.8333333333333" y="460" text-anchor="middle" transform="rotate(-30 560.8333333333333 460)" class="axis">list_grow</text>
<text x="649.1666666666666" y="460" text-anchor="middle" transform="rotate(-30 649.1666666666666 460)" class="axis">count_calls</text>
<text x="737.4999999999999" y="460" text-anchor="middle" transform="rotate(-30 737.4999999999999 460)" class="axis">class_new</text>
<text x="825.8333333333333" y="460" text-anchor="middle" transform="rotate(-30 825.8333333333333 460)" class="axis">try_catch</text>
<text x="880" y="65" class="axis" font-weight="bold">Language</text>
<rect x="880" y="87" width="14" height="14" fill="#ff9800" rx="2"/>
<text x="902" y="99" class="axis">Period</text>
<rect x="880" y="109" width="14" height="14" fill="#4caf50" rx="2"/>
<text x="902" y="121" class="axis">C (Release)</text>
<rect x="880" y="131" width="14" height="14" fill="#2196f3" rx="2"/>
<text x="902" y="143" class="axis">Rust</text>
<rect x="880" y="153" width="14" height="14" fill="#00bcd4" rx="2"/>
<text x="902" y="165" class="axis">Go</text>
<rect x="880" y="175" width="14" height="14" fill="#9c27b0" rx="2"/>
<text x="902" y="187" class="axis">C#</text>
<rect x="880" y="197" width="14" height="14" fill="#f44336" rx="2"/>
<text x="902" y="209" class="axis">Java</text>
</svg>