<svg xmlns="http://www.w3.org/2000/svg" width="980" height="520" viewBox="0 0 980 520">
<style>
  text { font-family: sans-serif; font-size: 12px; fill: #333; }
  .title { font-size: 18px; font-weight: bold; }
  .axis { font-size: 12px; }
  .label { font-size: 11px; }
  .grid { stroke: #e0e0e0; stroke-width: 1; }
</style>
<rect width="980" height="520" fill="#ffffff"/>
<text x="490" y="32" text-anchor="middle" class="title">Period Benchmark Results (log scale)</text>
<line x1="80" y1="440.0" x2="865" y2="440.0" class="grid"/>
<text x="72" y="444.0" text-anchor="end" class="axis">0.1 ms</text>
<line x1="80" y1="375.38392669795655" x2="865" y2="375.38392669795655" class="grid"/>
<text x="72" y="379.38392669795655" text-anchor="end" class="axis">1 ms</text>
<line x1="80" y1="261.5060471365876" x2="865" y2="261.5060471365876" class="grid"/>
<text x="72" y="265.5060471365876" text-anchor="end" class="axis">10 ms</text>
<line x1="80" y1="147.62816757521858" x2="865" y2="147.62816757521858" class="grid"/>
<text x="72" y="151.62816757521858" text-anchor="end" class="axis">100 ms</text>
<line x1="80" y1="50" x2="80" y2="440" stroke="#333" stroke-width="2"/>
<line x1="80" y1="440" x2="865" y2="440" stroke="#333" stroke-width="2"/>
<rect x="86.23015873015873" y="428.9640932103779" width="10.591269841269842" height="11.035906789622118" fill="#ff9800" rx="2"/>
<text x="91.52579365079366" y="423.9640932103779" text-anchor="middle" class="label">0.3</text>
<rect x="98.69047619047619" y="262.2623027615336" width="10.591269841269842" height="177.7376972384664" fill="#4caf50" rx="2"/>
<text x="103.98611111111111" y="257.2623027615336" text-anchor="middle" class="label">9.8</text>
<rect x="111.15079365079364" y="226.84200860105383" width="10.591269841269842" height="213.15799139894617" fill="#2196f3" rx="2"/>
<text x="116.44642857142857" y="221.84200860105383" text-anchor="middle" class="label">20.2</text>
<rect x="123.61111111111111" y="212.08301588725192" width="10.591269841269842" height="227.91698411274808" fill="#00bcd4" rx="2"/>
<text x="128.90674603174602" y="207.08301588725192" text-anchor="middle" class="label">27.2</text>
<rect x="136.07142857142856" y="188.6472127911364" width="10.591269841269842" height="251.3527872088636" fill="#9c27b0" rx="2"/>
<text x="141.36706349206347" y="183.6472127911364" text-anchor="middle" class="label">43.6</text>
<rect x="148.53174603174602" y="166.47219243625307" width="10.591269841269842" height="273.52780756374693" fill="#f44336" rx="2"/>
<text x="153.82738095238093" y="161.47219243625307" text-anchor="middle" class="label">68.3</text>
<rect x="173.45238095238096" y="412.1056759805896" width="10.591269841269842" height="27.89432401941042" fill="#ff9800" rx="2"/>
<text x="178.74801587301587" y="407.1056759805896" text-anchor="middle" class="label">0.5</text>
<rect x="185.91269841269843" y="237.09865356919715" width="10.591269841269842" height="202.90134643080285" fill="#4caf50" rx="2"/>
<text x="191.20833333333334" y="232.09865356919715" text-anchor="middle" class="label">16.4</text>
<rect x="198.37301587301587" y="201.87831210752532" width="10.591269841269842" height="238.12168789247468" fill="#2196f3" rx="2"/>
<text x="203.66865079365078" y="196.87831210752532" text-anchor="middle" class="label">33.4</text>
<rect x="210.83333333333334" y="191.49333664084605" width="10.591269841269842" height="248.50666335915395" fill="#00bcd4" rx="2"/>
<text x="216.12896825396825" y="186.49333664084605" text-anchor="middle" class="label">41.2</text>
<rect x="223.29365079365078" y="177.02512308481374" width="10.591269841269842" height="262.97487691518626" fill="#9c27b0" rx="2"/>
<text x="228.5892857142857" y="172.02512308481374" text-anchor="middle" class="label">55.2</text>
<rect x="235.75396825396825" y="156.20589105488364" width="10.591269841269842" height="283.79410894511636" fill="#f44336" rx="2"/>
<text x="241.04960317460316" y="151.20589105488364" text-anchor="middle" class="label">84.1</text>
<rect x="260.6746031746032" y="421.798153446145" width="10.591269841269842" height="18.201846553854978" fill="#ff9800" rx="2"/>
<text x="265.97023809523813" y="416.798153446145" text-anchor="middle" class="label">0.4</text>
<rect x="273.13492063492066" y="224.63110654319266" width="10.591269841269842" height="215.36889345680734" fill="#4caf50" rx="2"/>
<text x="278.4305555555556" y="219.63110654319266" text-anchor="middle" class="label">21.1</text>
<rect x="285.59523809523813" y="192.58785841626408" width="10.591269841269842" height="247.41214158373592" fill="#2196f3" rx="2"/>
<text x="290.89087301587307" y="187.58785841626408" text-anchor="middle" class="label">40.3</text>
<rect x="298.05555555555554" y="205.9406171410713" width="10.591269841269842" height="234.0593828589287" fill="#00bcd4" rx="2"/>
<text x="303.3511904761905" y="200.9406171410713" text-anchor="middle" class="label">30.8</text>
<rect x="310.515873015873" y="177.2363059137947" width="10.591269841269842" height="262.7636940862053" fill="#9c27b0" rx="2"/>
<text x="315.81150793650795" y="172.2363059137947" text-anchor="middle" class="label">55.0</text>
<rect x="322.9761904761905" y="160.90510098439904" width="10.591269841269842" height="279.09489901560096" fill="#f44336" rx="2"/>
<text x="328.2718253968254" y="155.90510098439904" text-anchor="middle" class="label">76.5</text>
<rect x="347.8968253968254" y="423.91740692111784" width="10.591269841269842" height="16.082593078882155" fill="#ff9800" rx="2"/>
<text x="353.19246031746036" y="418.91740692111784" text-anchor="middle" class="label">0.4</text>
<rect x="360.3571428571429" y="240.4503165767682" width="10.591269841269842" height="199.5496834232318" fill="#4caf50" rx="2"/>
<text x="365.6527777777778" y="235.4503165767682" text-anchor="middle" class="label">15.3</text>
<rect x="372.81746031746036" y="206.688608590947" width="10.591269841269842" height="233.311391409053" fill="#2196f3" rx="2"/>
<text x="378.1130952380953" y="201.688608590947" text-anchor="middle" class="label">30.3</text>
<rect x="385.2777777777778" y="198.70047829617496" width="10.591269841269842" height="241.29952170382504" fill="#00bcd4" rx="2"/>
<text x="390.57341269841277" y="193.70047829617496" text-anchor="middle" class="label">35.6</text>
<rect x="397.73809523809524" y="174.76587844884318" width="10.591269841269842" height="265.2341215511568" fill="#9c27b0" rx="2"/>
<text x="403.0337301587302" y="169.76587844884318" text-anchor="middle" class="label">57.8</text>
<rect x="410.1984126984127" y="160.16953160985406" width="10.591269841269842" height="279.83046839014594" fill="#f44336" rx="2"/>
<text x="415.49404761904765" y="155.16953160985406" text-anchor="middle" class="label">77.6</text>
<rect x="435.11904761904765" y="367.2069584718922" width="10.591269841269842" height="72.79304152810778" fill="#ff9800" rx="2"/>
<text x="440.4146825396826" y="362.2069584718922" text-anchor="middle" class="label">1.2</text>
<rect x="447.5793650793651" y="255.99459625294935" width="10.591269841269842" height="184.00540374705065" fill="#4caf50" rx="2"/>
<text x="452.87500000000006" y="250.99459625294935" text-anchor="middle" class="label">11.2</text>
<rect x="460.0396825396826" y="255.1421159905203" width="10.591269841269842" height="184.8578840094797" fill="#2196f3" rx="2"/>
<text x="465.3353174603175" y="250.1421159905203" text-anchor="middle" class="label">11.4</text>
<rect x="472.5" y="59.01699240093052" width="10.591269841269842" height="380.9830075990695" fill="#00bcd4" rx="2"/>
<text x="477.79563492063494" y="74.01699240093052" text-anchor="middle" class="label">600.0</text>
<rect x="484.96031746031747" y="183.41310084441733" width="10.591269841269842" height="256.58689915558267" fill="#9c27b0" rx="2"/>
<text x="490.2559523809524" y="178.41310084441733" text-anchor="middle" class="label">48.5</text>
<rect x="497.42063492063494" y="168.52577614250123" width="10.591269841269842" height="271.47422385749877" fill="#f44336" rx="2"/>
<text x="502.7162698412699" y="163.52577614250123" text-anchor="middle" class="label">65.5</text>
<rect x="522.3412698412698" y="346.2259161570459" width="10.591269841269842" height="93.7740838429541" fill="#ff9800" rx="2"/>
<text x="527.6369047619047" y="341.2259161570459" text-anchor="middle" class="label">1.8</text>
<rect x="534.8015873015872" y="245.35624966867465" width="10.591269841269842" height="194.64375033132535" fill="#4caf50" rx="2"/>
<text x="540.0972222222222" y="240.35624966867465" text-anchor="middle" class="label">13.9</text>
<rect x="547.2619047619047" y="239.22602127220097" width="10.591269841269842" height="200.77397872779903" fill="#2196f3" rx="2"/>
<text x="552.5575396825396" y="234.22602127220097" text-anchor="middle" class="label">15.7</text>
<rect x="559.7222222222222" y="207.94778249560775" width="10.591269841269842" height="232.05221750439225" fill="#00bcd4" rx="2"/>
<text x="565.0178571428571" y="202.94778249560775" text-anchor="middle" class="label">29.5</text>
<rect x="572.1825396825396" y="178.6676034909479" width="10.591269841269842" height="261.3323965090521" fill="#9c27b0" rx="2"/>
<text x="577.4781746031746" y="173.6676034909479" text-anchor="middle" class="label">53.4</text>
<rect x="584.6428571428571" y="135.66305612290972" width="10.591269841269842" height="304.3369438770903" fill="#f44336" rx="2"/>
<text x="589.938492063492" y="130.66305612290972" text-anchor="middle" class="label">127.4</text>
<rect x="609.563492063492" y="405.7613717101894" width="10.591269841269842" height="34.238628289810606" fill="#ff9800" rx="2"/>
<text x="614.859126984127" y="400.7613717101894" text-anchor="middle" class="label">0.5</text>
<rect x="622.0238095238095" y="249.061148755596" width="10.591269841269842" height="190.938851244404" fill="#4caf50" rx="2"/>
<text x="627.3194444444445" y="244.061148755596" text-anchor="middle" class="label">12.9</text>
<rect x="634.484126984127" y="246.9775079989148" width="10.591269841269842" height="193.0224920010852" fill="#2196f3" rx="2"/>
<text x="639.7797619047619" y="241.9775079989148" text-anchor="middle" class="label">13.4</text>
<rect x="646.9444444444445" y="212.29601508703593" width="10.591269841269842" height="227.70398491296407" fill="#00bcd4" rx="2"/>
<text x="652.2400793650794" y="207.29601508703593" text-anchor="middle" class="label">27.0</text>
<rect x="659.4047619047619" y="188.52003782037897" width="10.591269841269842" height="251.47996217962103" fill="#9c27b0" rx="2"/>
<text x="664.7003968253969" y="183.52003782037897" text-anchor="middle" class="label">43.7</text>
<rect x="671.8650793650794" y="160.1781106032791" width="10.591269841269842" height="279.8218893967209" fill="#f44336" rx="2"/>
<text x="677.1607142857143" y="155.1781106032791" text-anchor="middle" class="label">77.6</text>
<rect x="696.7857142857143" y="347.12570174477924" width="10.591269841269842" height="92.87429825522076" fill="#ff9800" rx="2"/>
<text x="702.0813492063493" y="342.12570174477924" text-anchor="middle" class="label">1.8</text>
<rect x="709.2460317460318" y="252.22832422049936" width="10.591269841269842" height="187.77167577950064" fill="#4caf50" rx="2"/>
<text x="714.5416666666667" y="247.22832422049936" text-anchor="middle" class="label">12.1</text>
<rect x="721.7063492063493" y="248.2932177265449" width="10.591269841269842" height="191.7067822734551" fill="#2196f3" rx="2"/>
<text x="727.0019841269842" y="243.2932177265449" text-anchor="middle" class="label">13.1</text>
<rect x="734.1666666666667" y="219.7496355303048" width="10.591269841269842" height="220.2503644696952" fill="#00bcd4" rx="2"/>
<text x="739.4623015873017" y="214.7496355303048" text-anchor="middle" class="label">23.3</text>
<rect x="746.6269841269842" y="184.81245994918734" width="10.591269841269842" height="255.18754005081266" fill="#9c27b0" rx="2"/>
<text x="751.9226190476192" y="179.81245994918734" text-anchor="middle" class="label">47.1</text>
<rect x="759.0873015873017" y="164.5522320005246" width="10.591269841269842" height="275.4477679994754" fill="#f44336" rx="2"/>
<text x="764.3829365079366" y="159.5522320005246" text-anchor="middle" class="label">71.0</text>
<rect x="784.0079365079365" y="416.928621392781" width="10.591269841269842" height="23.071378607219003" fill="#ff9800" rx="2"/>
<text x="789.3035714285714" y="411.928621392781" text-anchor="middle" class="label">0.4</text>
<rect x="796.468253968254" y="197.64241937569196" width="10.591269841269842" height="242.35758062430804" fill="#4caf50" rx="2"/>
<text x="801.7638888888889" y="192.64241937569196" text-anchor="middle" class="label">36.4</text>
<rect x="808.9285714285714" y="121.00627296282659" width="10.591269841269842" height="318.9937270371734" fill="#2196f3" rx="2"/>
<text x="814.2242063492064" y="116.00627296282659" text-anchor="middle" class="label">171.3</text>
<rect x="821.3888888888889" y="201.0152982357449" width="10.591269841269842" height="238.9847017642551" fill="#00bcd4" rx="2"/>
<text x="826.6845238095239" y="196.0152982357449" text-anchor="middle" class="label">34.0</text>
<rect x="833.8492063492064" y="133.94860296856524" width="10.591269841269842" height="306.05139703143476" fill="#9c27b0" rx="2"/>
<text x="839.1448412698413" y="128.94860296856524" text-anchor="middle" class="label">131.9</text>
<rect x="846.3095238095239" y="150.14068677546942" width="10.591269841269842" height="289.8593132245306" fill="#f44336" rx="2"/>
<text x="851.6051587301588" y="145.14068677546942" text-anchor="middle" class="label">95.0</text>
<text x="123.61111111111111" y="460" text-anchor="middle" transform="rotate(-30 123.61111111111111 460)" class="axis">sum</text>
<text x="210.83333333333334" y="460" text-anchor="middle" transform="rotate(-30 210.83333333333334 460)" class="axis">div3or5</text>
<text x="298.05555555555554" y="460" text-anchor="middle" transform="rotate(-30 298.05555555555554 460)" class="axis">count_div3and5</text>
<text x="385.2777777777778" y="460" text-anchor="middle" transform="rotate(-30 385.2777777777778 460)" class="axis">sum_multiples_3or5</text>
<text x="472.5" y="460" text-anchor="middle" transform="rotate(-30 472.5 460)" class="axis">string_concat</text>
<text x="559.7222222222222" y="460" text-anchor="middle" transform="rotate(-30 559.7222222222222 460)" class="axis">list_grow</text>
<text x="646.9444444444445" y="460" text-anchor="middle" transform="rotate(-30 646.9444444444445 460)" class="axis">count_calls</text>
<text x="734.1666666666667" y="460" text-anchor="middle" transform="rotate(-30 734.1666666666667 460)" class="axis">class_new</text>
<text x="821.3888888888889" y="460" text-anchor="middle" transform="rotate(-30 821.3888888888889 460)" class="axis">try_catch</text>
<text x="885" y="76" class="axis" font-weight="bold">Language</text>
<rect x="885" y="78" width="14" height="14" fill="#ff9800" rx="2"/>
<text x="907" y="90" class="axis">Period</text>
<rect x="885" y="100" width="14" height="14" fill="#4caf50" rx="2"/>
<text x="907" y="112" class="axis">C (Release)</text>
<rect x="885" y="122" width="14" height="14" fill="#2196f3" rx="2"/>
<text x="907" y="134" class="axis">Rust</text>
<rect x="885" y="144" width="14" height="14" fill="#00bcd4" rx="2"/>
<text x="907" y="156" class="axis">Go</text>
<rect x="885" y="166" width="14" height="14" fill="#9c27b0" rx="2"/>
<text x="907" y="178" class="axis">C#</text>
<rect x="885" y="188" width="14" height="14" fill="#f44336" rx="2"/>
<text x="907" y="200" class="axis">Java</text>
</svg>